<?xml version="1.0" standalone="no"?>
<!DOCTYPE svg PUBLIC "-//W3C//DTD SVG 20010904//EN"
 "http://www.w3.org/TR/2001/REC-SVG-20010904/DTD/svg10.dtd">
<svg version="1.0" xmlns="http://www.w3.org/2000/svg"
 width="1280.000000pt" height="640.000000pt" viewBox="0 0 1280.000000 640.000000"
 preserveAspectRatio="xMidYMid meet">
<g transform="translate(0.000000,640.000000) scale(0.100000,-0.100000)"
fill="#000000" stroke="none">
<path d="M5857 5280 c-149 -14 -330 -48 -420 -79 -393 -138 -1464 -731 -2482
-1376 -616 -390 -1031 -609 -1491 -785 l-101 -39 -49 16 c-33 11 -85 16 -164
16 -166 0 -268 -38 -353 -132 -45 -50 -60 -85 -52 -121 13 -61 124 -128 275
-166 61 -15 111 -19 270 -19 201 1 296 13 307 42 3 7 -5 34 -18 58 -13 24 -21
47 -17 50 3 4 71 -18 150 -48 232 -90 587 -194 943 -277 77 -18 143 -37 146
-42 3 -5 0 -28 -8 -51 -28 -80 4 -147 93 -194 80 -42 153 -56 260 -51 75 4 99
9 152 37 35 17 90 57 123 87 50 46 65 54 87 50 113 -24 609 -80 957 -109 248
-21 260 -23 257 -42 -15 -95 -14 -135 8 -179 28 -59 122 -145 195 -180 98 -46
175 -60 335 -60 103 0 170 5 233 18 48 10 91 16 94 13 3 -3 -4 -26 -16 -50
-26 -54 -26 -77 -1 -109 60 -77 360 -138 675 -138 277 0 414 47 473 161 39 73
16 175 -56 253 -48 51 -163 125 -241 154 -111 43 -196 56 -317 49 -96 -5 -105
-4 -114 14 -6 11 -9 23 -6 28 3 4 184 11 403 14 375 7 944 29 1079 43 39 4 64
2 68 -4 4 -6 2 -30 -4 -54 -25 -97 24 -131 185 -131 163 1 286 53 425 180 l75
68 178 19 c98 10 181 15 184 12 3 -3 -15 -51 -42 -107 -43 -93 -47 -106 -42
-158 3 -31 8 -65 12 -77 6 -18 -1 -24 -52 -42 -106 -39 -201 -130 -238 -226
-16 -43 -16 -46 1 -83 24 -48 108 -92 244 -128 193 -51 394 -54 528 -8 118 40
182 123 182 238 0 23 5 46 12 53 7 7 44 12 97 12 47 0 142 7 211 16 69 8 134
16 145 17 16 2 21 -7 27 -48 6 -33 17 -57 32 -71 49 -44 214 -67 592 -84 345
-15 501 6 608 79 84 58 117 151 96 269 -30 177 -162 327 -371 427 -244 116
-459 69 -723 -159 l-59 -50 -25 34 c-15 19 -70 80 -124 135 -54 55 -97 104
-94 110 2 6 48 19 102 29 170 32 501 105 663 146 86 22 163 40 171 40 9 0 29
-13 44 -29 91 -95 432 -150 577 -92 155 60 209 160 164 307 -8 27 -15 54 -15
60 0 6 23 21 51 32 50 21 51 21 87 3 46 -23 332 -81 398 -81 72 0 116 16 152
53 46 47 51 91 19 160 -49 108 -142 180 -265 206 -73 15 -148 14 -181 -3 -37
-20 -87 -78 -114 -132 -11 -24 -27 -44 -35 -44 -7 0 -77 33 -155 74 -78 41
-302 149 -497 239 -1048 484 -1771 848 -2580 1297 -297 165 -428 232 -610 313
-362 159 -727 265 -1080 312 -138 19 -496 27 -633 15z"/>
<path d="M12485 2991 c-16 -4 -40 -13 -51 -19 -57 -30 -124 -149 -124 -219 0
-56 50 -114 117 -137 61 -21 91 -20 157 5 96 35 225 172 212 224 -20 80 -213
170 -311 146z"/>
<path d="M264 2740 c-86 -22 -159 -58 -197 -96 -33 -33 -67 -99 -67 -128 1
-27 28 -59 68 -80 67 -35 318 -10 489 48 116 39 163 72 163 112 0 44 -115 120
-227 149 -75 20 -142 18 -229 -5z"/>
<path d="M11865 2487 c-92 -31 -154 -68 -204 -122 -45 -49 -52 -85 -26 -134
36 -70 184 -170 305 -205 138 -41 342 -58 425 -35 77 21 175 161 177 252 1 60
-9 86 -46 125 -74 79 -240 132 -431 138 -116 4 -138 2 -200 -19z"/>
<path d="M765 2435 c-76 -16 -160 -54 -202 -89 -80 -67 -13 -136 201 -207 74
-24 184 -25 232 -3 40 19 72 60 86 110 20 74 -64 169 -172 193 -56 13 -70 13
-145 -4z"/>
<path d="M2138 2310 c-81 -14 -154 -39 -182 -61 -30 -24 -56 -69 -56 -98 0
-30 56 -89 111 -117 85 -43 160 -26 224 49 71 83 105 188 71 216 -19 16 -109
22 -168 11z"/>
<path d="M2343 1893 c-25 -18 -35 -65 -22 -115 14 -60 55 -103 112 -119 53
-14 171 -5 203 16 79 51 41 152 -73 195 -59 22 -200 37 -220 23z"/>
<path d="M11449 1866 c-31 -12 -72 -32 -92 -45 -47 -29 -107 -96 -107 -120 0
-74 256 -158 402 -132 102 18 186 72 214 138 18 42 4 73 -47 109 -107 74 -262
95 -370 50z"/>
<path d="M4615 1594 c-108 -22 -139 -30 -195 -56 -125 -56 -154 -116 -85 -177
165 -144 441 -132 617 27 52 47 64 77 42 109 -40 61 -266 119 -379 97z"/>
<path d="M7596 1375 c-104 -43 -236 -149 -236 -190 0 -39 108 -65 273 -65 214
0 409 81 375 155 -14 31 -70 70 -145 101 -81 33 -185 33 -267 -1z"/>
</g>
</svg>
